<?xml version="1.0" standalone="no"?>
<!DOCTYPE svg PUBLIC "-//W3C//DTD SVG 20010904//EN"
 "http://www.w3.org/TR/2001/REC-SVG-20010904/DTD/svg10.dtd">
<svg version="1.0" xmlns="http://www.w3.org/2000/svg"
 width="256.000000pt" height="256.000000pt" viewBox="0 0 256.000000 256.000000"
 preserveAspectRatio="xMidYMid meet">

<g transform="translate(0.000000,256.000000) scale(0.100000,-0.100000)"
fill="#FF7D1F" stroke="none">
<path d="M1205 2129 c-25 -4 -11 -5 40 -2 44 3 82 7 84 9 7 7 -81 2 -124 -7z"/>
<path d="M1373 2123 c9 -2 23 -2 30 0 6 3 -1 5 -18 5 -16 0 -22 -2 -12 -5z"/>
<path d="M1073 2100 c-93 -33 -176 -83 -243 -147 l-65 -62 60 1 60 1 -49 6
-50 6 56 50 c64 59 155 110 253 141 38 13 61 23 50 23 -11 0 -44 -9 -72 -19z"/>
<path d="M1428 2113 c7 -3 16 -2 19 1 4 3 -2 6 -13 5 -11 0 -14 -3 -6 -6z"/>
<path d="M1213 2103 c-40 -2 -73 -8 -73 -13 0 -6 -9 -10 -19 -10 -11 0 -23 -5
-26 -10 -4 -6 -11 -8 -16 -4 -10 6 -38 -23 -39 -39 0 -12 48 -27 65 -21 18 7
20 30 3 37 -7 3 5 3 27 0 22 -3 48 -10 57 -14 9 -5 43 -10 75 -11 48 -1 43 -3
-32 -8 l-90 -6 107 -2 c90 -2 109 -5 118 -19 10 -17 10 -17 8 1 -2 10 3 21 11
24 10 3 12 0 8 -12 -4 -10 -7 -27 -7 -38 0 -17 -3 -18 -14 -9 -12 10 -13 8 -9
-8 7 -26 31 -27 40 -3 7 18 22 32 36 32 5 0 5 -6 1 -12 -6 -10 -5 -10 7 -1 10
8 63 13 150 15 l134 3 -35 23 c-29 19 -31 20 -11 3 l23 -21 -30 0 c-40 0 -63
10 -55 23 4 6 1 7 -6 3 -7 -5 -17 -1 -24 8 -7 9 -37 20 -67 25 l-55 9 45 1
c33 1 41 4 30 11 -8 5 -29 10 -47 10 -17 0 -35 5 -38 10 -5 8 -11 7 -21 -1 -8
-6 -17 -9 -21 -5 -3 3 0 6 8 6 12 0 12 2 -1 9 -8 6 -27 7 -42 4 -17 -3 -28 -1
-28 6 0 6 -15 10 -37 9 -21 -1 -71 -4 -110 -5z m232 -103 c4 -6 10 -8 15 -5 5
3 11 1 14 -4 3 -5 0 -11 -7 -13 -15 -6 -59 16 -50 25 9 10 21 9 28 -3z m118
-17 c-7 -2 -21 -2 -30 0 -10 3 -4 5 12 5 17 0 24 -2 18 -5z"/>
<path d="M1468 2103 c7 -3 16 -2 19 1 4 3 -2 6 -13 5 -11 0 -14 -3 -6 -6z"/>
<path d="M1510 2092 c8 -5 26 -13 40 -16 17 -5 20 -4 10 2 -8 5 -26 13 -40 16
-17 5 -20 4 -10 -2z"/>
<path d="M1620 2046 c0 -3 9 -10 20 -16 11 -6 20 -8 20 -6 0 3 -9 10 -20 16
-11 6 -20 8 -20 6z"/>
<path d="M1863 2013 l37 -38 38 38 c32 33 34 37 12 29 -14 -5 -25 -14 -25 -20
0 -6 -6 -17 -13 -24 -10 -10 -18 -7 -43 20 -16 17 -33 32 -37 32 -4 0 10 -17
31 -37z"/>
<path d="M975 2003 c-18 -5 -66 -33 -55 -33 3 1 30 9 60 20 49 17 46 26 -5 13z"/>
<path d="M1040 1996 c0 -2 9 -6 20 -9 11 -3 18 -1 14 4 -5 9 -34 13 -34 5z"/>
<path d="M1105 1960 c10 -11 20 -20 23 -20 3 0 -3 9 -13 20 -10 11 -20 20 -23
20 -3 0 3 -9 13 -20z"/>
<path d="M896 1943 c-6 -14 -5 -15 5 -6 7 7 10 15 7 18 -3 3 -9 -2 -12 -12z"/>
<path d="M484 1926 c-11 -29 0 -51 26 -51 21 0 25 5 25 30 0 24 -5 31 -23 33
-13 2 -24 -3 -28 -12z"/>
<path d="M1137 1913 c5 -21 10 -23 130 -25 120 -3 126 -4 134 -25 5 -13 5 -22
1 -22 -4 1 -64 1 -134 0 -104 -1 -128 -4 -128 -15 0 -8 -12 -29 -27 -47 -15
-18 -28 -39 -28 -48 0 -8 -11 -18 -25 -22 -21 -6 -22 -7 -5 -9 11 -1 15 -4 8
-6 -6 -3 -35 2 -64 10 -28 9 -63 14 -78 11 -14 -3 -20 -2 -13 1 6 3 12 12 12
20 0 11 4 12 19 4 11 -5 23 -10 28 -10 4 1 -5 8 -20 16 -15 8 -36 29 -47 46
-18 29 -18 29 -17 5 1 -14 5 -23 9 -21 4 2 9 0 13 -6 3 -5 -1 -10 -9 -10 -9 0
-16 -5 -16 -11 0 -8 -6 -7 -17 2 -13 11 -17 11 -20 2 -6 -18 -43 -16 -43 2 0
10 11 16 33 16 32 2 32 2 3 6 -16 3 -35 11 -43 19 -17 16 -23 17 -43 4 -12 -8
-13 -12 -2 -19 10 -6 5 -10 -18 -14 -19 -4 -29 -11 -25 -18 4 -6 13 -8 20 -5
10 3 10 -2 1 -27 -14 -39 -32 -60 -46 -52 -5 3 -10 1 -10 -4 0 -6 8 -11 18
-11 10 0 24 -6 32 -12 12 -11 12 -10 1 5 -8 9 -9 17 -3 17 18 0 21 -27 6 -49
-9 -12 -26 -21 -40 -21 -25 0 -30 15 -25 80 1 21 0 22 -9 8 -7 -11 -7 -31 -1
-57 7 -31 6 -41 -6 -45 -8 -3 -11 -1 -8 4 3 6 2 10 -3 10 -5 0 -12 -17 -16
-39 l-6 -39 -71 -4 c-96 -5 -99 -10 -99 -159 l0 -116 -28 -6 c-42 -8 -77 -41
-90 -84 -11 -37 -8 -64 13 -116 11 -27 84 -64 149 -76 34 -6 64 -18 72 -28 11
-16 9 -19 -20 -26 -62 -15 -106 -90 -106 -181 0 -50 52 -105 141 -148 l69 -33
-50 -10 c-28 -5 -51 -14 -50 -20 3 -44 576 -80 890 -56 276 21 569 66 640 99
l35 16 -45 5 -45 6 57 13 c65 15 104 51 93 87 -3 11 -12 54 -20 95 -8 41 -19
94 -24 118 -7 38 -6 42 11 42 22 0 60 18 70 34 12 17 10 226 -2 226 -6 0 -10
26 -10 58 0 46 -4 63 -20 77 -11 10 -20 28 -20 39 0 12 -6 33 -13 47 -8 14
-17 45 -21 70 -10 67 -48 168 -73 195 -24 26 -86 33 -126 13 -19 -9 -20 -9 -5
4 15 12 11 40 -6 38 -26 -4 -46 1 -41 8 3 5 -3 12 -12 14 -10 3 -2 6 17 7 31
3 29 4 -15 9 -41 5 -50 9 -50 26 0 15 8 21 34 25 32 5 33 6 16 20 -11 9 -16
10 -11 3 5 -9 0 -13 -13 -13 -16 0 -21 6 -21 26 0 24 2 25 18 13 9 -7 4 1 -12
19 l-30 32 -165 -2 -166 -2 164 -3 c162 -3 206 -12 181 -37 -7 -7 -15 -4 -26
10 -8 10 -13 15 -11 9 3 -6 -22 -9 -66 -8 -151 4 -194 4 -242 0 -27 -1 -56 1
-62 6 -7 5 -63 9 -124 8 -96 -2 -113 0 -125 16 -12 17 -13 16 -7 -4z m408 -33
c-3 -5 -17 -10 -30 -10 -13 0 -27 -5 -31 -11 -3 -6 -21 -18 -38 -26 -44 -20
-76 -39 -89 -52 -6 -6 -18 -11 -26 -11 -8 0 -24 -8 -35 -17 -21 -18 -21 -18
-3 3 14 17 15 23 5 27 -7 3 1 3 18 0 23 -3 33 -1 37 11 5 13 -2 16 -44 16 -41
0 -49 -3 -47 -17 2 -10 -7 -22 -22 -30 l-25 -13 30 -1 c27 -2 28 -2 5 -6 -14
-3 -31 -10 -38 -15 -28 -23 -22 2 8 34 l32 33 -28 6 c-16 4 -38 7 -49 8 -16 1
-17 -1 -5 -9 13 -8 12 -10 -2 -10 -12 0 -18 -8 -18 -21 0 -15 -5 -19 -15 -15
-8 3 -15 1 -15 -4 0 -6 5 -10 12 -10 6 0 9 -3 5 -6 -3 -3 -15 -3 -27 1 -20 6
-20 8 10 41 16 19 30 39 30 44 0 6 50 10 121 10 77 0 118 -4 114 -10 -10 -16
11 -12 25 5 7 8 18 15 26 15 7 0 20 7 28 16 9 9 29 20 44 24 38 12 44 11 37 0z
m140 -21 c0 -8 8 -13 17 -11 12 2 18 -6 20 -25 2 -19 8 -27 18 -25 8 2 12 1 8
-3 -9 -9 19 -75 45 -105 l22 -25 -24 20 c-13 11 -34 42 -47 68 -14 26 -40 65
-60 87 -26 28 -30 38 -17 36 10 -2 18 -9 18 -17z m-57 -19 c17 -11 32 -22 32
-26 0 -3 -15 3 -32 14 -18 10 -41 17 -52 14 -11 -2 -16 0 -12 7 10 16 27 14
64 -9z m-98 -20 c0 -4 -9 -6 -21 -3 -15 4 -17 8 -8 14 14 8 29 3 29 -11z m-65
-30 c3 -5 -3 -10 -15 -10 -12 0 -18 5 -15 10 3 6 10 10 15 10 5 0 12 -4 15
-10z m334 -26 c4 3 13 0 21 -5 11 -7 8 -8 -10 -6 -16 3 -25 11 -26 23 -1 16 0
16 3 1 3 -9 8 -15 12 -13z m-390 -8 c10 -12 8 -13 -8 -9 -12 3 -18 9 -15 14 7
12 10 11 23 -5z m-639 -6 c0 -5 -4 -10 -10 -10 -5 0 -10 5 -10 10 0 6 5 10 10
10 6 0 10 -4 10 -10z m110 -20 c11 -7 7 -10 -17 -10 -55 0 -85 -49 -59 -100 8
-17 13 -30 11 -30 -2 0 -12 -3 -22 -6 -13 -4 -15 -3 -4 4 10 7 11 14 1 32 -7
13 -9 33 -4 48 4 15 7 30 6 35 -1 4 3 7 9 7 5 0 7 5 3 12 -4 6 -3 9 2 6 5 -3
18 -2 29 3 27 10 28 10 45 -1z m475 0 c3 -5 -3 -10 -15 -10 -12 0 -18 5 -15
10 3 6 10 10 15 10 5 0 12 -4 15 -10z m-165 -31 c0 -5 -8 -9 -17 -8 -11 0 -13
3 -5 6 6 2 9 10 6 15 -4 7 -2 8 4 4 7 -4 12 -11 12 -17z m68 -7 c2 -7 -2 -10
-12 -6 -9 3 -16 11 -16 16 0 13 23 5 28 -10z m49 2 c-3 -3 -12 -4 -19 -1 -8 3
-5 6 6 6 11 1 17 -2 13 -5z m438 -14 c23 -25 19 -25 -31 0 -35 17 -37 19 -13
20 14 0 34 -9 44 -20z m-870 0 c3 -5 0 -10 -9 -10 -8 0 -16 -6 -19 -12 -2 -7
-8 -10 -12 -6 -8 8 12 38 26 38 4 0 11 -4 14 -10z m268 3 c-7 -2 -21 -2 -30 0
-10 3 -4 5 12 5 17 0 24 -2 18 -5z m538 -10 c13 -15 12 -15 -6 -6 -11 6 -27
13 -35 16 -10 4 -8 6 6 6 12 1 28 -6 35 -16z m-729 -19 c21 -15 36 -29 33 -32
-4 -5 -85 47 -85 54 0 9 17 2 52 -22z m647 12 c9 -11 6 -12 -14 -8 -14 2 -22
8 -19 13 8 13 20 11 33 -5z m-471 -11 c92 0 108 -10 33 -20 -51 -7 -144 7
-171 26 -11 7 -5 8 20 2 19 -4 72 -8 118 -8z m902 -17 c13 -23 16 -36 9 -43
-7 -7 -14 -4 -23 8 -12 16 -16 16 -49 2 -20 -8 -52 -15 -72 -15 -39 0 -99 21
-110 40 -4 7 5 5 23 -4 56 -29 192 -12 192 24 0 13 -36 13 -63 -1 -21 -10 -21
-10 -3 5 34 27 74 20 96 -16z m-480 2 c24 -15 7 -19 -20 -5 -15 8 -19 14 -10
14 8 1 22 -3 30 -9z m100 -4 c0 -2 -7 -9 -15 -16 -13 -11 -14 -10 -9 4 5 14
24 23 24 12z m-150 -31 c11 -13 8 -13 -19 -4 -35 12 -40 19 -12 19 10 0 24 -7
31 -15z m100 11 c0 -2 -7 -9 -15 -16 -13 -11 -14 -10 -9 4 5 14 24 23 24 12z
m220 -53 c3 -3 -9 1 -26 10 -17 9 -37 23 -44 33 -12 14 55 -27 70 -43z m-389
20 c13 -15 12 -15 -8 -4 -24 12 -29 21 -14 21 5 0 15 -7 22 -17z m-384 -17
c15 -13 43 -31 61 -40 l32 -17 -25 -42 c-13 -23 -30 -53 -35 -67 -12 -28 -60
-76 -72 -73 -4 2 -5 -4 -2 -12 4 -9 0 -15 -9 -15 -8 0 -22 -11 -30 -23 -9 -13
-29 -30 -46 -37 -17 -6 -33 -20 -36 -30 -6 -20 -91 -60 -127 -60 -30 0 -78 48
-78 77 0 28 17 38 35 23 16 -13 45 -7 45 9 0 5 -7 17 -17 26 -14 14 -14 18 -2
26 21 13 45 11 59 -6 7 -8 19 -15 26 -15 19 0 18 34 -1 50 -8 7 -12 16 -9 21
8 14 40 10 54 -6 7 -8 17 -15 22 -15 18 0 20 31 3 50 -25 28 -10 43 36 36 35
-6 39 -4 39 15 0 13 -8 23 -20 26 -36 10 -19 38 22 38 20 0 39 3 43 7 13 12
-16 38 -41 38 -26 0 -30 10 -12 28 19 19 54 14 85 -12z m-162 -8 c25 -11 34
-28 14 -28 -6 0 -19 4 -29 10 -12 6 -28 6 -50 -1 -43 -15 -50 -3 -9 15 43 18
43 18 74 4z m1190 -40 c19 -66 20 -99 1 -92 -7 3 -17 26 -21 52 -3 26 -8 57
-11 70 -8 44 16 21 31 -30z m-752 -14 c32 -38 87 -57 151 -52 l41 3 7 -55 c7
-59 4 -70 -14 -52 -27 27 -83 11 -104 -30 -14 -27 -17 -28 -37 -15 -12 7 -31
16 -42 20 -19 6 -19 6 -1 -6 10 -7 27 -19 38 -27 19 -15 19 -16 -3 -17 -12 -1
-33 -13 -46 -28 -13 -14 -27 -25 -32 -25 -4 0 -16 -17 -25 -38 -9 -20 -31 -46
-49 -57 -17 -11 -43 -28 -57 -37 -14 -10 -32 -21 -40 -25 -8 -3 -28 -17 -44
-30 l-29 -24 -23 28 c-13 15 -21 35 -18 43 3 8 2 11 -2 7 -4 -4 -18 3 -31 15
-24 22 -29 53 -13 78 7 12 12 12 29 -4 11 -10 25 -15 30 -11 17 10 13 34 -8
47 -15 9 -17 15 -9 25 15 19 42 16 63 -7 14 -15 21 -17 32 -9 18 16 17 25 -12
53 -14 14 -21 28 -15 31 6 3 10 1 10 -5 0 -6 5 -8 11 -5 5 4 19 -1 29 -10 19
-17 50 -15 50 3 0 5 -7 15 -15 22 -26 22 -19 43 13 36 54 -13 57 -12 55 16 -1
18 4 28 18 31 27 7 13 37 -17 37 -22 0 -23 2 -14 20 9 17 17 20 46 14 30 -5
34 -4 34 14 0 19 -18 32 -44 32 -18 0 -62 -43 -71 -68 -3 -12 -13 -22 -21 -22
-11 0 -8 12 12 53 39 76 40 77 92 70 37 -5 53 -13 75 -39z m47 42 c0 -2 -7 -6
-15 -10 -8 -3 -15 -1 -15 4 0 6 7 10 15 10 8 0 15 -2 15 -4z m-576 -37 c33
-26 28 -35 -11 -17 -28 14 -63 13 -73 -3 -3 -4 -12 -4 -20 1 -11 7 -9 11 10
18 14 5 32 12 40 15 24 9 26 8 54 -14z m-122 -47 c9 -9 -11 -12 -80 -12 l-92
0 0 -65 c0 -52 -3 -65 -15 -65 -13 0 -15 12 -13 72 3 68 5 73 28 78 40 10 160
4 172 -8z m1393 -65 c37 -10 54 -22 55 -39 0 -13 -84 -9 -137 7 -45 14 -58 14
-108 0 -38 -9 -98 -14 -178 -13 l-122 2 70 17 c39 10 86 18 105 18 19 1 67 14
105 30 l70 29 50 -21 c28 -11 68 -24 90 -30z m-1515 39 c0 -2 -7 -7 -16 -10
-8 -3 -12 -2 -9 4 6 10 25 14 25 6z m23 -57 c-17 -17 -37 -1 -22 17 8 10 15
12 23 4 7 -7 7 -13 -1 -21z m528 -32 c-10 -9 -11 -8 -5 6 3 10 9 15 12 12 3
-3 0 -11 -7 -18z m423 -48 c51 -32 58 -51 9 -25 -21 10 -33 12 -44 4 -11 -8
-10 -9 4 -4 10 3 16 2 13 -3 -3 -5 -14 -11 -25 -14 -23 -6 -24 24 -1 35 12 5
12 7 -3 7 -10 1 -25 -12 -35 -30 -37 -67 -53 -76 -27 -14 23 53 39 74 56 75 3
0 27 -14 53 -31z m621 1 c4 -7 -88 -10 -269 -10 -172 0 -277 4 -281 10 -4 7
88 10 269 10 172 0 277 -4 281 -10z m-1469 -130 l24 -26 -44 -12 c-24 -6 -58
-23 -75 -38 -28 -23 -38 -26 -78 -20 -55 7 -132 42 -140 63 -13 32 32 55 129
68 52 6 107 18 123 26 29 14 30 14 33 -11 2 -14 14 -36 28 -50z m1249 55 c-16
-15 -25 -36 -25 -55 0 -44 -25 -97 -52 -110 l-23 -11 22 18 c28 23 43 63 43
114 0 48 -11 49 -60 5 -21 -19 -49 -40 -62 -47 -27 -14 75 80 106 98 11 7 33
12 48 13 l27 0 -24 -25z m-381 -20 c11 -8 17 -18 13 -21 -3 -4 -2 -14 3 -24 7
-14 3 -20 -18 -30 -31 -15 -71 -19 -73 -8 -1 4 -3 13 -4 18 -1 6 -3 17 -4 25
0 8 -5 15 -10 15 -5 0 -7 -10 -3 -22 5 -21 4 -22 -11 -9 -24 19 -22 26 16 50
38 24 65 26 91 6z m-168 -30 c18 -14 17 -14 -11 -5 -16 5 -39 11 -50 13 -13 3
-9 5 11 6 16 0 39 -6 50 -14z m-464 -24 c-3 -23 6 -41 47 -92 28 -35 50 -68
48 -74 -6 -18 -244 -13 -307 7 -152 49 -127 98 66 128 40 7 87 21 110 35 21
14 39 25 40 25 0 0 -1 -13 -4 -29z m816 -100 c23 -7 54 -9 69 -5 22 4 25 3 13
-5 -32 -23 -119 -3 -163 37 -11 9 -22 16 -26 16 -3 -1 -12 1 -20 4 -29 11
-125 -33 -301 -139 -102 -61 -202 -118 -223 -126 -30 -12 -35 -18 -26 -29 6
-8 9 -14 5 -14 -8 0 -66 80 -66 91 0 5 10 18 23 30 l22 23 -27 -17 c-31 -20
-38 -21 -38 -7 0 16 39 32 61 25 21 -7 21 -7 -1 -30 -13 -14 -20 -31 -17 -39
7 -17 32 -22 40 -8 2 4 3 2 1 -4 -2 -9 5 -9 27 -1 26 10 27 12 10 19 -10 3
-23 13 -27 20 -6 10 -5 11 8 1 22 -19 67 -11 121 21 26 15 47 29 47 31 0 1
-10 0 -23 -2 -14 -3 -29 2 -38 13 -13 16 -12 16 9 3 18 -11 26 -12 43 -1 12 8
18 9 14 3 -12 -20 5 -12 113 54 59 35 135 75 169 89 57 22 62 23 79 7 17 -15
17 -14 0 6 -10 13 -24 20 -30 16 -6 -3 -8 -3 -4 2 4 4 2 17 -4 29 -6 11 18 -7
54 -41 44 -42 78 -65 106 -72z m442 14 c0 -57 -4 -95 -10 -95 -6 0 -10 38 -10
95 0 57 4 95 10 95 6 0 10 -38 10 -95z m-809 52 c-6 -8 -8 -23 -5 -33 6 -18 6
-18 -11 -2 -18 17 -18 18 0 38 20 22 35 19 16 -3z m670 -49 c11 -40 23 -80 25
-89 5 -19 -25 -35 -31 -16 -2 6 -9 37 -15 67 -5 30 -13 67 -16 83 -4 16 -2 27
5 27 6 0 20 -33 32 -72z m-736 41 c11 -17 2 -18 -19 -3 -17 12 -17 14 -4 14 9
0 20 -5 23 -11z m155 -14 c-7 -8 -24 -14 -39 -14 l-26 2 28 4 c16 3 31 11 34
19 3 8 8 13 11 10 3 -3 -1 -12 -8 -21z m-1079 -13 c-6 -2 -8 -9 -5 -14 4 -7 2
-8 -4 -4 -7 4 -12 16 -12 28 0 18 2 19 16 7 10 -8 12 -15 5 -17z m854 -2 c-3
-5 -11 -10 -16 -10 -6 0 -7 5 -4 10 3 6 11 10 16 10 6 0 7 -4 4 -10z m303 -20
c-7 -11 -15 -15 -17 -9 -2 6 3 15 10 20 20 12 21 11 7 -11z m36 11 c3 -5 -1
-11 -9 -14 -9 -4 -12 -1 -8 9 6 16 10 17 17 5z m76 -1 c0 -5 -7 -10 -15 -10
-8 0 -15 -5 -15 -12 0 -6 -3 -8 -7 -4 -5 4 1 14 11 22 23 17 26 17 26 4z
m-373 -17 c-9 -11 -14 -29 -11 -48 l5 -30 -16 28 c-15 27 -15 30 1 48 9 10 22
19 27 19 6 0 3 -8 -6 -17z m-78 -7 c10 -12 8 -13 -8 -9 -12 3 -18 9 -15 14 7
12 10 11 23 -5z m166 -16 c-3 -6 -19 -17 -34 -24 -23 -12 -28 -12 -28 -1 0 7
5 11 11 9 7 -3 20 2 31 10 24 18 28 19 20 6z m-756 -14 c17 -21 103 -55 163
-65 50 -8 51 -9 13 -10 -22 0 -65 9 -95 20 -30 12 -67 21 -81 21 -22 -1 -27 3
-25 23 1 28 8 31 25 11z m854 -4 c-21 -22 -26 -21 -17 2 3 9 12 16 20 16 11 0
10 -4 -3 -18z m-296 -30 c-10 -11 -14 -26 -10 -40 7 -28 -3 -29 -17 -1 -9 16
-8 25 6 40 9 10 22 19 27 19 6 0 3 -8 -6 -18z m-72 -12 c7 -12 -2 -12 -30 0
-19 8 -19 9 2 9 12 1 25 -3 28 -9z m312 4 c-3 -3 -12 -4 -19 -1 -8 3 -5 6 6 6
11 1 17 -2 13 -5z m-94 -51 c-7 -2 -13 -12 -13 -20 0 -9 -3 -14 -6 -10 -10 10
4 37 18 36 10 0 10 -2 1 -6z m780 -35 c3 -24 9 -58 13 -76 5 -25 2 -38 -12
-54 -19 -21 -19 -21 3 -10 16 9 22 9 26 -2 7 -17 -28 -51 -42 -42 -5 4 -36 2
-68 -3 -34 -5 -78 -6 -103 -1 -57 11 -104 0 -377 -92 -205 -69 -213 -71 -232
-54 -21 19 -46 13 -37 -9 3 -8 -7 -15 -29 -19 -28 -6 -39 -2 -66 24 -19 16
-38 30 -43 30 -5 0 -3 -6 6 -12 8 -7 18 -21 21 -30 5 -15 0 -18 -33 -18 -22 0
-40 5 -40 10 0 6 -9 10 -20 10 -11 0 -20 -4 -20 -10 0 -5 -16 -10 -36 -10 -21
0 -33 4 -29 10 3 5 2 10 -3 10 -24 0 -193 33 -242 47 -72 21 -154 57 -210 93
-33 21 -46 36 -48 55 -1 15 1 25 6 23 179 -93 270 -121 443 -139 188 -20 339
10 529 106 141 71 231 103 430 155 102 27 190 49 196 49 7 1 14 -18 17 -41z
m-1120 -40 c37 -77 43 -113 7 -45 -17 31 -35 57 -41 57 -6 0 -3 -7 5 -16 15
-15 21 -34 11 -34 -2 0 -12 9 -22 19 -17 18 -21 19 -73 4 -38 -10 -83 -13
-145 -10 -63 3 -78 2 -50 -4 22 -4 65 -8 95 -9 43 0 51 -3 37 -11 -22 -13
-145 -6 -174 9 -30 16 -66 16 -57 0 5 -9 2 -9 -9 1 -9 7 -17 14 -17 15 0 1 17
3 37 4 53 4 55 12 2 12 -70 0 -79 -13 -30 -45 22 -15 41 -30 41 -32 0 -7 -60
31 -76 48 -12 14 -12 18 7 35 19 17 38 19 183 19 130 1 168 4 196 17 19 10 38
17 41 18 4 0 18 -24 32 -52z m277 38 c0 -2 -7 -7 -16 -10 -8 -3 -12 -2 -9 4 6
10 25 14 25 6z m-343 -57 c-12 -7 -16 -17 -12 -32 5 -16 4 -18 -3 -8 -6 8 -17
11 -26 8 -9 -4 -16 -2 -16 3 0 6 -8 10 -17 11 -10 0 2 6 27 13 57 17 70 18 47
5z m72 -69 c0 -10 -3 -8 -9 5 -12 27 -12 43 0 25 5 -8 9 -22 9 -30z m-349 -10
c8 -5 11 -10 5 -10 -5 0 -17 5 -25 10 -8 5 -10 10 -5 10 6 0 17 -5 25 -10z
m90 -12 c10 -6 7 -7 -10 -2 -14 3 -32 11 -40 16 -10 6 -7 7 10 2 14 -3 32 -11
40 -16z m274 -33 c5 -22 4 -26 -4 -15 -5 8 -10 24 -10 34 0 26 6 18 14 -19z
m1146 -33 c0 -14 -8 -19 -30 -20 -35 -1 -36 1 -14 22 21 22 44 20 44 -2z
m-533 -108 c-3 -3 -12 -4 -19 -1 -8 3 -5 6 6 6 11 1 17 -2 13 -5z"/>
<path d="M1448 1403 c6 -2 18 -2 25 0 6 3 1 5 -13 5 -14 0 -19 -2 -12 -5z"/>
<path d="M1477 1198 c-14 -11 -15 -17 -4 -38 14 -28 41 -37 62 -20 24 20 0 53
-33 45 -22 -5 -24 -4 -13 9 16 19 11 21 -12 4z"/>
<path d="M853 993 c15 -2 39 -2 55 0 15 2 2 4 -28 4 -30 0 -43 -2 -27 -4z"/>
<path d="M1772 775 c-95 -27 -234 -76 -229 -81 2 -2 37 8 78 22 41 14 121 38
179 54 58 16 94 29 80 29 -14 0 -62 -11 -108 -24z"/>
<path d="M1995 1881 c-3 -2 -5 -19 -5 -37 0 -61 72 -86 109 -38 23 30 28 58 9
51 -7 -2 -18 3 -24 11 -10 14 -79 24 -89 13z"/>
<path d="M727 1833 c-3 -5 20 -7 51 -5 98 5 110 9 30 11 -42 0 -79 -2 -81 -6z"/>
<path d="M700 1790 c-6 -11 -8 -20 -6 -20 3 0 10 9 16 20 6 11 8 20 6 20 -3 0
-10 -9 -16 -20z"/>
<path d="M440 1754 c0 -2 9 -8 20 -14 11 -6 20 -7 20 -2 0 6 -9 12 -20 15 -11
3 -20 3 -20 1z"/>
<path d="M672 1735 c-17 -37 -14 -45 4 -12 9 16 14 31 11 33 -2 2 -9 -7 -15
-21z"/>
<path d="M510 1741 c-19 -5 -21 -8 -10 -13 9 -3 24 0 35 8 20 15 15 16 -25 5z"/>
<path d="M998 1723 c12 -2 30 -2 40 0 9 3 -1 5 -23 4 -22 0 -30 -2 -17 -4z"/>
<path d="M450 1605 c13 -14 27 -25 32 -25 5 0 -3 11 -18 25 -15 14 -29 25 -32
25 -3 0 5 -11 18 -25z"/>
<path d="M506 1611 c-11 -4 -15 -10 -10 -13 5 -4 18 0 29 8 20 15 12 17 -19 5z"/>
</g>
</svg>
